<?xml version="1.0"?>
<svg xmlns:rdf="http://www.w3.org/1999/02/22-rdf-syntax-ns#" xmlns="http://www.w3.org/2000/svg" xmlns:cc="http://web.resource.org/cc/" xmlns:xlink="http://www.w3.org/1999/xlink" xmlns:dc="http://purl.org/dc/elements/1.1/" xmlns:svg="http://www.w3.org/2000/svg" id="svg2" viewBox="0 0 117.18 250.52" version="1.0">
  <defs id="defs4">
    <linearGradient id="linearGradient6747" x1="200.38" gradientUnits="userSpaceOnUse" y1="498.13" gradientTransform="translate(-173.3 -320.12)" x2="247.31" y2="539.27">
      <stop id="stop6741" offset="0"/>
      <stop id="stop6743" stop-opacity="0" offset="1"/>
    </linearGradient>
  </defs>
  <g id="layer1" transform="translate(-3.0305 .21677)">
    <g id="g1897">
      <path id="path3075" d="m444.03 362.03a12.857 25 0 1 1 -0.12 0.23" transform="matrix(1.0793 .11449 -.12439 .99342 -385.66 -382.1)" stroke="#000" stroke-linecap="round" stroke-width="2.3534" fill="none"/>
      <path id="path3077" stroke="#000" stroke-width="3" fill="none" d="m53.11 72.037c-11.63 8.414-9.374 73.523-4.296 71.013 7.613-3.78-6.535-65.435 4.296-71.013z"/>
      <path id="path4833" d="m293.26 368.63a3.5714 4.6429 0 1 1 -0.03 0.04" transform="translate(-242.36 -330.75)" stroke="#000" stroke-linecap="round" stroke-width="2.075" fill="none"/>
      <path id="path4835" d="m293.26 368.63a3.5714 4.6429 0 1 1 -0.03 0.04" transform="translate(-230.72 -330.75)" stroke="#000" stroke-linecap="round" stroke-width="2.075" fill="none"/>
      <path id="path4837" stroke="#000" stroke-width="1.25" fill="none" d="m59.602 61.756c-3.571 0-15 0.714-15 0.714"/>
      <path id="path4874" stroke="#000" stroke-width="1.9" fill="none" d="m48.432 77.661c-20.893 60.399-14.649 67.679-14.647 67.679"/>
      <path id="path4876" stroke="#000" stroke-width="1.9" fill="none" d="m50.957 85.237c5.051 32.833 13.132 51.013 13.132 51.013"/>
      <path id="path4878" stroke="#000" stroke-width="1.9" fill="none" d="m45.106 138.71c3.576 67.99-5.765 61.68-5.26 63.2 0.505 1.51 1.01 3.54 1.01 3.54"/>
      <path id="path4880" stroke="#000" stroke-width="1.9" fill="none" d="m48.785 139.73c11.69 30.19-1.849 59.67-1.409 62.28 0.266 1.57 13.208 1.48 13.208 1.48"/>
      <path id="path4882" stroke-width="1px" stroke="#000" fill-rule="evenodd" d="m39.341 202.41c-2.444 2.49-8.163 2.49-5.556 4.05 5.366 3.2 4.974 6.79 8.586 3.03 3.932-4.1 13.132-0.51-3.03-7.08z"/>
      <path id="path5757" stroke-width="1px" stroke="#000" fill-rule="evenodd" d="m52.341 199.84c-2.444 2.49-5.663 1.06-3.056 2.62 5.366 3.2 12.831 6.08 16.443 2.31 3.932-4.1 2.775 1.64-13.387-4.93z"/>
      <path id="path5759" stroke-width="1px" stroke="#000" fill-rule="evenodd" d="m37.895 145.37c-3.48 0.18-5.417-8.24-4.551-5.33 1.781 6-3.209 12.92 1.997 12.59 5.668-0.35 10.01 8.52 2.554-7.26z"/>
      <path id="path5761" stroke-width="1px" stroke="#000" fill-rule="evenodd" d="m66.816 136.28c-3.481 0.18-5.418-8.24-4.552-5.33 1.781 5.99-3.209 12.92 1.997 12.59 5.668-0.36 10.01 8.51 2.555-7.26z"/>
      <path id="path6737" fill="url(#linearGradient6747)" d="m56.818 206.7c12.611-0.95-13.479 3.91-15.069 4.24-8.064 0.98 17.066-2.02 25.795-3.03 18.346-1.46-24.619 5.02-27.055 5.58 0.742-3.11 33.629-8.99 24.744-3.79-14.033 7.12-11.483 4.94 2.033 3.43 22.218-1.9-4.832 3.65-12.467 5.43-4.22-2.03 38.918-9.55 19.038-3.23-1.228 1.69-7.704 2.6 1.67 0.23 1.242-0.32-2.451 0.75-3.645 1.21-4.029 1.57-4.234 1.99 0.021 2.62 4.239 0.47 8.488 0.81 12.733 1.22l-6.12 2.53c-4.291-0.45-8.594-0.77-12.89-1.18-12.007-1.69 12.466-10.97 15.285-8.13-5.518 1.81-36.191 7.07-19.84 1.9 19.093-3.6 13.323-0.85 0.258 0.02-13.201 1.65-18.32 2.25-2.871-5.09 6.406-3.07-31.214 6.78-11.563-0.06 8.157-1.49 43.084-6.87 14.815-0.12-10.064 1.06-46.04 5.82-14.064-2.19 14.705-3.03 18.794-1.82 2.509 1.07l6.683-2.66z"/>
    </g>
  </g>
  <metadata>
    <rdf:RDF>
      <cc:Work>
        <dc:format>image/svg+xml</dc:format>
        <dc:type rdf:resource="http://purl.org/dc/dcmitype/StillImage"/>
        <cc:license rdf:resource="http://creativecommons.org/licenses/publicdomain/"/>
        <dc:publisher>
          <cc:Agent rdf:about="http://openclipart.org/">
            <dc:title>Openclipart</dc:title>
          </cc:Agent>
        </dc:publisher>
        <dc:title>AL_standing</dc:title>
        <dc:date>2006-11-21T15:52:48</dc:date>
        <dc:description>THIS IS AL, HE'S STANDING UP.</dc:description>
        <dc:source>http://openclipart.org/detail/1567/al_standing-by-paro</dc:source>
        <dc:creator>
          <cc:Agent>
            <dc:title>paro</dc:title>
          </cc:Agent>
        </dc:creator>
        <dc:subject>
          <rdf:Bag>
            <rdf:li>clip art</rdf:li>
            <rdf:li>clipart</rdf:li>
            <rdf:li>image</rdf:li>
            <rdf:li>media</rdf:li>
            <rdf:li>pec</rdf:li>
            <rdf:li>pecs</rdf:li>
            <rdf:li>pecs cards</rdf:li>
            <rdf:li>people</rdf:li>
            <rdf:li>png</rdf:li>
            <rdf:li>public domain</rdf:li>
            <rdf:li>standing</rdf:li>
            <rdf:li>stick</rdf:li>
            <rdf:li>stick figure</rdf:li>
            <rdf:li>stick man</rdf:li>
            <rdf:li>svg</rdf:li>
          </rdf:Bag>
        </dc:subject>
      </cc:Work>
      <cc:License rdf:about="http://creativecommons.org/licenses/publicdomain/">
        <cc:permits rdf:resource="http://creativecommons.org/ns#Reproduction"/>
        <cc:permits rdf:resource="http://creativecommons.org/ns#Distribution"/>
        <cc:permits rdf:resource="http://creativecommons.org/ns#DerivativeWorks"/>
      </cc:License>
    </rdf:RDF>
  </metadata>
</svg>
